<?xml version="1.0" standalone="no"?>
<!DOCTYPE svg PUBLIC "-//W3C//DTD SVG 20010904//EN"
 "http://www.w3.org/TR/2001/REC-SVG-20010904/DTD/svg10.dtd">
<svg version="1.0" xmlns="http://www.w3.org/2000/svg"
 width="256.000000pt" height="256.000000pt" viewBox="0 0 256.000000 256.000000"
 preserveAspectRatio="xMidYMid meet">
<metadata>
Created by potrace 1.14, written by Peter Selinger 2001-2017
</metadata>
<g transform="translate(0.000000,256.000000) scale(0.100000,-0.100000)"
fill="#000000" stroke="none">
<path d="M750 2539 c-14 -6 -38 -23 -55 -39 -24 -23 -60 -36 -184 -69 -84 -22
-160 -37 -170 -34 -42 13 -63 30 -75 58 -37 88 -147 59 -149 -40 -1 -19 -4
-35 -8 -35 -3 0 -7 -190 -9 -422 -8 -1121 -10 -1923 -6 -1934 3 -8 15 -10 39
-4 19 4 43 3 53 -2 16 -8 17 -7 4 4 -8 7 -17 20 -19 28 -2 8 -5 333 -5 722 -1
388 -5 710 -9 714 -11 11 -9 912 3 919 5 3 20 -3 32 -14 28 -26 53 -27 71 -1
13 19 16 19 48 6 29 -12 40 -27 68 -93 19 -43 51 -114 71 -159 21 -44 40 -102
43 -130 6 -62 23 -99 51 -112 11 -5 62 -24 111 -41 96 -32 175 -47 355 -66 30
-3 71 -8 90 -11 19 -2 51 -7 70 -9 19 -3 46 -7 60 -10 14 -2 50 -10 80 -16 30
-5 156 -35 280 -64 124 -30 240 -57 259 -60 19 -3 37 -8 40 -10 4 -2 58 -12
121 -24 290 -51 292 -51 386 72 108 143 166 297 134 357 -12 22 -103 53 -311
105 -77 20 -188 54 -247 76 -93 35 -208 72 -264 84 -21 5 -88 13 -163 20 -69
7 -234 42 -250 53 -5 5 -36 18 -68 31 -45 18 -79 23 -163 25 l-105 2 -65 67
c-67 70 -88 78 -144 56z m-144 -146 c-60 -95 -126 -277 -107 -300 3 -4 0 -3
-8 4 -18 15 -133 274 -125 282 3 3 67 22 142 42 75 20 138 37 139 38 2 1 -17
-29 -41 -66z"/>
<path d="M575 261 c-3 -5 -2 -12 3 -15 5 -3 9 1 9 9 0 17 -3 19 -12 6z"/>
<path d="M295 140 c-3 -6 2 -13 12 -17 10 -3 22 -8 27 -11 5 -3 6 0 2 6 -4 7
-14 12 -22 12 -8 0 -12 5 -9 10 3 6 4 10 1 10 -3 0 -8 -5 -11 -10z"/>
<path d="M348 143 c6 -2 18 -2 25 0 6 3 1 5 -13 5 -14 0 -19 -2 -12 -5z"/>
<path d="M230 120 c0 -5 5 -10 11 -10 5 0 7 5 4 10 -3 6 -8 10 -11 10 -2 0 -4
-4 -4 -10z"/>
<path d="M250 100 c-9 -6 -10 -10 -3 -10 6 0 15 5 18 10 8 12 4 12 -15 0z"/>
<path d="M269 83 c-13 -16 -12 -17 4 -4 9 7 17 15 17 17 0 8 -8 3 -21 -13z"/>
<path d="M210 81 c0 -14 29 -21 36 -9 4 7 3 8 -4 4 -7 -4 -12 -2 -12 3 0 6 -4
11 -10 11 -5 0 -10 -4 -10 -9z"/>
<path d="M190 60 c0 -6 7 -10 15 -10 8 0 15 2 15 4 0 2 -7 6 -15 10 -8 3 -15
1 -15 -4z"/>
</g>
</svg>
